<?xml version="1.0" encoding="UTF-8"?><svg id="Layer_2" xmlns="http://www.w3.org/2000/svg" viewBox="0 0 258.99 43.28"><defs><style>.cls-1{fill:none;stroke:#231f20;stroke-linecap:round;stroke-linejoin:round;stroke-width:5px;}</style></defs><g id="BL-L-Title"><g id="BL-L-Title-2"><path id="B" class="cls-1" d="m4.55,21.73c-.01,7.05-2.61,12.05-.07,16.12.78,1.25,1.68,1.83,1.98,2,2.03,1.17,4.6.71,7.12-.01,4.11-1.18,10.68-4.68,10.92-8.95.22-3.87-7.12-4.92-6.97-9.23.14-4.12,7.18-4.85,7.19-8.49,0-4.39-6.78-8.29-11.13-9.69-2.49-.8-4.7-1.04-6.71-.36-.22.07-2.07.75-3.27,2.14-2.95,3.41.97,7.81.95,16.48Z"/><path id="D" class="cls-1" d="m95.54,21.73c-.01,7.05-2.61,12.05-.07,16.12.78,1.25,1.68,1.83,1.98,2,2.03,1.17,4.6.71,7.12-.01,7.45-2.14,10.92-8.95,10.92-8.95,4.59-8.52.51-17.13.22-17.73-2.82-5.71-7.83-8.63-11.13-9.69-2.49-.8-4.7-1.04-6.71-.36-.22.07-2.07.75-3.27,2.14-2.95,3.41.97,7.81.95,16.48Z"/><path id="D-2" class="cls-1" d="m234.38,21.75c-.01,7.05-2.61,12.05-.07,16.12.78,1.25,1.68,1.83,1.98,2,2.03,1.17,4.6.71,7.12-.01,7.45-2.14,10.92-8.95,10.92-8.95,4.59-8.52.51-17.13.22-17.73-2.82-5.71-7.83-8.63-11.13-9.69-2.49-.8-4.7-1.04-6.71-.36-.22.07-2.07.75-3.27,2.14-2.95,3.41.97,7.81.95,16.48Z"/><g id="L"><path class="cls-1" d="m66.16,38.38c.89.97,2.31,2.19,4.09,2.23,2.83.06,4.05-2.96,6.83-3.44,1.45-.25,3.65.14,6.66,3.4"/><path class="cls-1" d="m68.13,2.71c-3.68,4.84-3.47,8.06-3.54,9.44,0,.07-.02.31-.02.68,0,4.25,2.1,5.76,2.02,8.47-.05,1.66-.72,2.12-1.11,3.66-.49,1.94-.95,3.77-1.01,6.2-.05,1.99-.07,4.03,1.09,6.15.38.69.79,1.21,1.08,1.55"/></g><g id="L-2"><path class="cls-1" d="m144.15,38.17c.89.97,2.31,2.19,4.09,2.23,2.83.06,4.05-2.96,6.83-3.44,1.45-.25,3.65.14,6.66,3.4"/><path class="cls-1" d="m146.13,2.5c-3.68,4.84-3.47,8.06-3.54,9.44,0,.07-.02.31-.02.68,0,4.25,2.1,5.76,2.02,8.47-.05,1.66-.72,2.12-1.11,3.66-.49,1.94-.95,3.77-1.01,6.2-.05,1.99-.07,4.03,1.09,6.15.38.69.79,1.21,1.08,1.55"/></g><g id="O"><path class="cls-1" d="m43.62,2.71c-.75.03-4.1.23-6.67,3.03-2.1,2.29-2.49,5.03-2.56,6.41,0,.07-.02.31-.02.68,0,4.25,1.74,5.77,2.02,8.47-.28,2.7-2.01,4.23-2.02,8.47,0,.37.01.61.02.68.07,1.38.46,4.12,2.56,6.41,2.57,2.8,5.92,3.01,6.67,3.03"/><path class="cls-1" d="m44.17,2.71c.75.03,4.1.23,6.67,3.03,2.1,2.29,2.49,5.03,2.56,6.41,0,.07.02.31.02.68,0,4.25-1.74,5.77-2.02,8.47.28,2.7,2.01,4.23,2.02,8.47,0,.37-.01.61-.02.68-.07,1.38-.46,4.12-2.56,6.41-2.57,2.8-5.92,3.01-6.67,3.03"/></g><g id="A"><path class="cls-1" d="m182.65,2.86c.75.03,4.1.23,6.67,3.03,2.1,2.29,2.49,5.03,2.56,6.41,0,.07.02.31.02.68,0,4.25-1.74,5.77-2.02,8.47.39,1.17.77,2.39,1.11,3.66,1.51,5.58,2.11,10.79,2.23,15.36"/><path class="cls-1" d="m182.1,2.86c-.75.03-4.1.23-6.67,3.03-2.1,2.29-2.49,5.03-2.56,6.41,0,.07-.02.31-.02.68,0,4.25,1.74,5.77,2.02,8.47-.39,1.17-.77,2.39-1.11,3.66-1.51,5.58-2.11,10.79-2.23,15.36"/><path class="cls-1" d="m175.09,20.79c2.73,2.61,6.21,2.97,7.16,3.03"/><path class="cls-1" d="m182.48,23.82c.94-.07,4.43-.42,7.16-3.03"/></g><g id="N"><path class="cls-1" d="m206.51,4.25c-3.68,4.84-3.47,8.06-3.54,9.44,0,.07-.02.31-.02.68,0,4.25,2.1,5.76,2.02,8.47-.05,1.66-.72,2.12-1.11,3.66-.49,1.94-.95,3.77-1.01,6.2-.05,1.99-.07,4.03,1.09,6.15.38.69.79,1.21,1.08,1.55"/><path class="cls-1" d="m221.21,40.4c3.68-4.84,3.47-8.06,3.54-9.44,0-.07.02-.31.02-.68,0-4.25-2.1-5.76-2.02-8.47.05-1.66.72-2.12,1.11-3.66.49-1.94.95-3.77,1.01-6.2.05-1.99.07-4.03-1.09-6.15-.38-.69-.79-1.21-1.08-1.55"/><path class="cls-1" d="m206.51,4.25c.87-.56,1.97-1.04,3.08-.79,3.21.72,4.18,6.93,4.49,8.95.49,3.12.26,5.31.14,7.46-.36,6.02-1.11,18.46,3.43,20.59.66.31,1.76.56,3.55-.07"/></g></g></g></svg>