<?xml version="1.0" encoding="UTF-8"?><svg id="Layer_2" xmlns="http://www.w3.org/2000/svg" viewBox="0 0 255.24 98.93"><defs><style>.cls-1{fill:none;stroke:#231f20;stroke-linecap:round;stroke-linejoin:round;stroke-width:5px;}</style></defs><g id="GD-P-Icon"><g id="GD-P-Icon-2"><path id="G" class="cls-1" d="m41.98,27.33c-3.75.98-10.2,3.19-16.44,8.47-3.96,3.35-10.22,8.65-10.22,14.66,0,7.86,19.99,21.54,26.65,19,1.85-.71,3.55-6.48,2.44-12.34-.22-1.18-1.53-8.08-6.02-9.27-3.16-.84-6.6,1.5-8.93,3.08"/><g id="D"><path class="cls-1" d="m57.19,27.28c3.76,1.17,9.59,3.52,15.26,8.41,4.04,3.48,10.19,8.78,10.22,14.66.04,7.78-10.64,16.25-26.65,19"/><path class="cls-1" d="m55.87,68.89c-2.66-7.13-6.43-20.81-1.42-35.31.79-2.28,1.73-4.38,2.74-6.3"/></g><path id="Loop1" class="cls-1" d="m93.36,49.6c-.25-5.35-2.96-8.93-6.72-13.92,0,0-12.38-16.4-36.26-20.87-.93-.17-1.84-.21-1.84-.21s-1.75-.07-3.59.36c-16.77,3.92-28.5,16.09-28.5,16.09-7.22,7.49-11.41,11.84-11.72,18.55-.42,9.06,6.56,15.78,12.3,21.32,0,0,9.55,9.21,27.92,13.48,1.85.43,3.59.36,3.59.36s.91-.04,1.84-.21c20.58-3.87,31.4-14.26,31.4-14.26,4.94-4.75,12.01-11.55,11.58-20.68Z"/><g id="Loop2"><path class="cls-1" d="m48.9,96.43c7.21-.27,12.04-3.12,18.75-7.09,0,0,22.11-13.07,28.12-38.29.23-.98.29-1.94.29-1.94s.1-1.85-.48-3.79c-5.28-17.71-21.68-30.08-21.68-30.08-10.09-7.62-15.96-12.05-25-12.37"/><path class="cls-1" d="m49.67,96.43c-7.21-.27-12.04-3.12-18.75-7.09,0,0-22.11-13.07-28.12-38.29-.23-.98-.29-1.94-.29-1.94s-.1-1.85.48-3.79C8.27,27.61,24.67,15.24,24.67,15.24c10.09-7.62,15.96-12.05,25-12.37"/></g></g></g><g id="GD-Title"><g id="GD-Title-2"><g id="M"><path class="cls-1" d="m198.35,94.79c-2.95-7.89-7.12-23.05-1.57-39.11.87-2.53,1.91-4.85,3.04-6.97,13.92,2.17,22.69,7.75,22.57,12.75-.02.77-.31,4.03-7.14,7.62"/><path class="cls-1" d="m252.33,74.06c-1.74-15.59-7.74-25.77-12.41-25.6-4.37.16-8.97,9.41-10.65,21.83"/><path class="cls-1" d="m252.33,74.98c.35,2.49.57,5.63.28,9.24-.34,4.31-1.28,7.9-2.2,10.56"/></g><g id="E"><path class="cls-1" d="m180.38,61.12c.17-4.67-10.02-10.67-25.6-12.41-1.13,2.12-2.16,4.44-3.04,6.97-5.55,16.06-1.37,31.21,1.57,39.11,2.34.38,9.73,1.28,17.33-2.98,5.49-3.08,8.45-7.37,9.74-9.53"/><path class="cls-1" d="m149.3,77.91c1.55.67,6.22,2.47,12.1,1.18,5.9-1.3,9.39-4.92,10.51-6.18"/></g><path id="G-2" class="cls-1" d="m135.12,48.62c-4.15,1.09-11.29,3.53-18.2,9.38-4.38,3.71-11.31,9.58-11.31,16.23,0,8.7,22.14,23.86,29.52,21.04,2.05-.78,3.94-7.18,2.71-13.67-.25-1.31-1.7-8.94-6.67-10.26-3.5-.93-7.31,1.66-9.89,3.42"/><path id="I" class="cls-1" d="m251.69,35.81c-2.12-5.68-5.12-16.58-1.13-28.12.63-1.82,1.37-3.49,2.18-5.02"/><g id="H"><path class="cls-1" d="m221.83,35.66c0-.84-.13-8.2,5.22-12.66,5.64-4.7,12.52-2.26,13.25-2.09"/><path class="cls-1" d="m237.3,35.82c2.12-5.68,5.12-16.58,1.13-28.12-.63-1.82-1.37-3.49-2.18-5.02"/><path class="cls-1" d="m223.23,26.82c-.5-3.12-1.62-10.61,1.33-19.13.76-2.19,1.59-3.9,2.18-5.02"/></g><path id="P" class="cls-1" d="m196.85,35.82c-2.12-5.68-5.12-16.58-1.13-28.12.63-1.82,1.37-3.49,2.18-5.02,11.21,1.25,18.54,5.56,18.41,8.92-.11,3.14-6.77,6.45-15.7,7.66"/><g id="A"><path class="cls-1" d="m165.8,35.66c0-.84-.13-8.2,5.22-12.66,5.64-4.7,12.52-2.26,13.25-2.09-1.25-11.21-5.56-18.54-8.92-18.41-3.14.11-6.45,6.77-7.66,15.7"/><path class="cls-1" d="m184.27,21.58c.25,1.79.41,4.05.2,6.65-.24,3.1-.92,5.68-1.58,7.6"/></g><g id="R"><path class="cls-1" d="m149.65,18.02c1.21,1.12,3.02,3.1,4.24,6.06,2.19,5.31.99,10.14.52,11.74"/><path class="cls-1" d="m139.74,35.82c-2.12-5.68-5.12-16.58-1.13-28.12.63-1.82,1.37-3.49,2.18-5.02,11.21,1.25,18.54,5.56,18.41,8.92-.11,3.14-6.77,6.45-15.7,7.66"/></g><g id="G-3"><path class="cls-1" d="m126.83,2.62c-2.99.78-8.12,2.54-13.09,6.75-3.15,2.67-8.14,6.89-8.14,11.67,0,6.26,15.92,17.16,21.23,15.13,1.47-.56,2.83-5.16,1.95-9.83-.18-.94-1.22-6.43-4.79-7.38-2.52-.67-5.26,1.19-7.11,2.46"/></g></g></g></svg>