<?xml version="1.0" encoding="UTF-8"?><svg id="Layer_2" xmlns="http://www.w3.org/2000/svg" viewBox="0 0 98.56 98.56"><defs><style>.cls-1{fill:none;stroke:#231f20;stroke-linecap:round;stroke-linejoin:round;stroke-width:5px;}</style></defs><g id="GD-P-Icon"><g id="GD-P-Icon-2"><path id="G" class="cls-1" d="m41.98,26.97c-3.75.98-10.2,3.19-16.44,8.47-3.96,3.35-10.22,8.65-10.22,14.66,0,7.86,19.99,21.54,26.65,19,1.85-.71,3.55-6.48,2.44-12.34-.22-1.18-1.53-8.08-6.02-9.27-3.16-.84-6.6,1.5-8.93,3.08"/><g id="D"><path class="cls-1" d="m57.19,26.92c3.76,1.17,9.59,3.52,15.26,8.41,4.04,3.48,10.19,8.78,10.22,14.66.04,7.78-10.64,16.25-26.65,19"/><path class="cls-1" d="m55.87,68.53c-2.66-7.13-6.43-20.81-1.42-35.31.79-2.28,1.73-4.38,2.74-6.3"/></g><path id="Loop1" class="cls-1" d="m93.36,49.24c-.25-5.35-2.96-8.93-6.72-13.92,0,0-12.38-16.4-36.26-20.87-.93-.17-1.84-.21-1.84-.21s-1.75-.07-3.59.36c-16.77,3.92-28.5,16.09-28.5,16.09-7.22,7.49-11.41,11.84-11.72,18.55-.42,9.06,6.56,15.78,12.3,21.32,0,0,9.55,9.21,27.92,13.48,1.85.43,3.59.36,3.59.36s.91-.04,1.84-.21c20.58-3.87,31.4-14.26,31.4-14.26,4.94-4.75,12.01-11.55,11.58-20.68Z"/><g id="Loop2"><path class="cls-1" d="m48.9,96.06c7.21-.27,12.04-3.12,18.75-7.09,0,0,22.11-13.07,28.12-38.29.23-.98.29-1.94.29-1.94s.1-1.85-.48-3.79c-5.28-17.71-21.68-30.08-21.68-30.08-10.09-7.62-15.96-12.05-25-12.37"/><path class="cls-1" d="m49.67,96.06c-7.21-.27-12.04-3.12-18.75-7.09,0,0-22.11-13.07-28.12-38.29-.23-.98-.29-1.94-.29-1.94s-.1-1.85.48-3.79C8.27,27.25,24.67,14.87,24.67,14.87c10.09-7.62,15.96-12.05,25-12.37"/></g></g></g></svg>