<?xml version="1.0" encoding="UTF-8"?><svg id="Layer_2" xmlns="http://www.w3.org/2000/svg" viewBox="0 0 93.4 89.67"><defs><style>.cls-1{fill:none;stroke:#231f20;stroke-linecap:round;stroke-linejoin:round;stroke-width:6px;}</style></defs><g id="GD-S-Icon"><g id="GD-S-Icon-2"><path id="G" class="cls-1" d="m37.59,3.1c-4.87,1.93-13.24,6.28-21.33,16.68-5.14,6.6-13.26,17.03-13.26,28.86,0,15.47,25.94,42.42,34.59,37.41,2.4-1.39,4.61-12.76,3.17-24.29-.29-2.32-1.99-15.9-7.81-18.25-4.1-1.65-8.57,2.95-11.59,6.07"/><g id="D"><path class="cls-1" d="m57.33,3c4.88,2.3,12.44,6.93,19.81,16.56,5.24,6.85,13.22,17.28,13.26,28.86.05,15.33-13.81,31.98-34.59,37.41"/><path class="cls-1" d="m55.61,84.92c-3.45-14.03-8.34-40.98-1.84-69.52,1.02-4.5,2.24-8.63,3.56-12.4"/></g></g></g></svg>