<?xml version="1.0" encoding="UTF-8"?><svg id="Layer_2" xmlns="http://www.w3.org/2000/svg" viewBox="0 0 253.05 98.13"><defs><style>.cls-1{stroke-width:5px;}.cls-1,.cls-2{fill:none;stroke:#231f20;stroke-linecap:round;stroke-linejoin:round;}.cls-2{stroke-width:6px;}</style></defs><g id="GD-S-Icon"><g id="GD-S-Icon-2"><path id="G" class="cls-2" d="m37.59,6.67c-4.87,1.93-13.24,6.28-21.33,16.68-5.14,6.6-13.26,17.03-13.26,28.86,0,15.47,25.94,42.42,34.59,37.41,2.4-1.39,4.61-12.76,3.17-24.29-.29-2.32-1.99-15.9-7.81-18.25-4.1-1.65-8.57,2.95-11.59,6.07"/><g id="D"><path class="cls-2" d="m57.33,6.57c4.88,2.3,12.44,6.93,19.81,16.56,5.24,6.85,13.22,17.28,13.26,28.86.05,15.33-13.81,31.98-34.59,37.41"/><path class="cls-2" d="m55.61,88.5c-3.45-14.03-8.34-40.98-1.84-69.52,1.02-4.5,2.24-8.63,3.56-12.4"/></g></g></g><g id="GD-Title"><g id="GD-Title-2"><g id="M"><path class="cls-1" d="m196.16,94.79c-2.95-7.89-7.12-23.05-1.57-39.11.87-2.53,1.91-4.85,3.04-6.97,13.92,2.17,22.69,7.75,22.57,12.75-.02.77-.31,4.03-7.14,7.62"/><path class="cls-1" d="m250.13,74.06c-1.74-15.59-7.74-25.77-12.41-25.6-4.37.16-8.97,9.41-10.65,21.83"/><path class="cls-1" d="m250.13,74.98c.35,2.49.57,5.63.28,9.24-.34,4.31-1.28,7.9-2.2,10.56"/></g><g id="E"><path class="cls-1" d="m178.18,61.12c.17-4.67-10.02-10.67-25.6-12.41-1.13,2.12-2.16,4.44-3.04,6.97-5.55,16.06-1.37,31.21,1.57,39.11,2.34.38,9.73,1.28,17.33-2.98,5.49-3.08,8.45-7.37,9.74-9.53"/><path class="cls-1" d="m147.11,77.91c1.55.67,6.22,2.47,12.1,1.18,5.9-1.3,9.39-4.92,10.51-6.18"/></g><path id="G-2" class="cls-1" d="m132.92,48.62c-4.15,1.09-11.29,3.53-18.2,9.38-4.38,3.71-11.31,9.58-11.31,16.23,0,8.7,22.14,23.86,29.52,21.04,2.05-.78,3.94-7.18,2.71-13.67-.25-1.31-1.7-8.94-6.67-10.26-3.5-.93-7.31,1.66-9.89,3.42"/><path id="I" class="cls-1" d="m249.49,35.81c-2.12-5.68-5.12-16.58-1.13-28.12.63-1.82,1.37-3.49,2.18-5.02"/><g id="H"><path class="cls-1" d="m219.64,35.66c0-.84-.13-8.2,5.22-12.66,5.64-4.7,12.52-2.26,13.25-2.09"/><path class="cls-1" d="m235.1,35.82c2.12-5.68,5.12-16.58,1.13-28.12-.63-1.82-1.37-3.49-2.18-5.02"/><path class="cls-1" d="m221.03,26.82c-.5-3.12-1.62-10.61,1.33-19.13.76-2.19,1.59-3.9,2.18-5.02"/></g><path id="P" class="cls-1" d="m194.65,35.82c-2.12-5.68-5.12-16.58-1.13-28.12.63-1.82,1.37-3.49,2.18-5.02,11.21,1.25,18.54,5.56,18.41,8.92-.11,3.14-6.77,6.45-15.7,7.66"/><g id="A"><path class="cls-1" d="m163.6,35.66c0-.84-.13-8.2,5.22-12.66,5.64-4.7,12.52-2.26,13.25-2.09-1.25-11.21-5.56-18.54-8.92-18.41-3.14.11-6.45,6.77-7.66,15.7"/><path class="cls-1" d="m182.08,21.58c.25,1.79.41,4.05.2,6.65-.24,3.1-.92,5.68-1.58,7.6"/></g><g id="R"><path class="cls-1" d="m147.45,18.02c1.21,1.12,3.02,3.1,4.24,6.06,2.19,5.31.99,10.14.52,11.74"/><path class="cls-1" d="m137.54,35.82c-2.12-5.68-5.12-16.58-1.13-28.12.63-1.82,1.37-3.49,2.18-5.02,11.21,1.25,18.54,5.56,18.41,8.92-.11,3.14-6.77,6.45-15.7,7.66"/></g><g id="G-3"><path class="cls-1" d="m124.63,2.62c-2.99.78-8.12,2.54-13.09,6.75-3.15,2.67-8.14,6.89-8.14,11.67,0,6.26,15.92,17.16,21.23,15.13,1.47-.56,2.83-5.16,1.95-9.83-.18-.94-1.22-6.43-4.79-7.38-2.52-.67-5.26,1.19-7.11,2.46"/></g></g></g></svg>